# xmcd
#
# Track frame offsets:
# 150
# 14799
# 30945
# 46855
# 61065
# 75446
# 86452
# 106078
# 119664
# 135988
# 150090
# 168434
#
# Disc length: 2434 seconds
#
#
# Revision: 0
# Processed by: cddbd v1.5.2PL0 Copyright (c) Steve Scherf et al.
# Submitted via: FreeRIP 2.941 
#
DISCID=7d09800c
DTITLE=Rhonda Vincent - Good Thing Going
DYEAR=2008
DGENRE=Country
TTITLE0=I'm Leavin'
TTITLE1=World's Biggest Fool
TTITLE2=I Give All My Love to You
TTITLE3=Good Thing Going
TTITLE4=Scorn of a Lover
TTITLE5=Hit Parade of Love
TTITLE6=I Will See You Again
TTITLE7=Just One of a Kind
TTITLE8=I Gotta Start Somewhere
TTITLE9=Who's Cryin' Baby
TTITLE10=The Water is Wide
TTITLE11=Bluegrass Saturday Night
EXTD=
EXTT0=
EXTT1=
EXTT2=
EXTT3=
EXTT4=
EXTT5=
EXTT6=
EXTT7=
EXTT8=
EXTT9=
EXTT10=
EXTT11=
PLAYORDER=
